<svg xmlns="http://www.w3.org/2000/svg" viewBox="0 0 682.12 350.2"><defs><style>.cls-1{fill:#c11937;}.cls-2{fill:#373737;}</style></defs><g id="Layer_2" data-name="Layer 2"><g id="Layer_1-2" data-name="Layer 1"><path class="cls-1" d="M75.93,167.78c-1.49-1.7-2.08-2.29-2.58-2.95Q49.13,133,24.89,101.27c-.94-1.23-2.32-2.94-3.56-3C14.24,98,7.12,98.14,0,98.14V211.49H24.12v-72c1.58,1.92,2.43,2.89,3.2,3.91Q52.18,176,77,208.56c1,1.25,2.29,3.05,3.51,3.11,6.59.31,13.2.14,19.84.14V98.46H75.93Z"/><path class="cls-2" d="M556,142.74H509.56V98.3H485.17V211.57h24.77V166.4H556.2v45.21h24.29V98.31H556Z"/><path class="cls-2" d="M381.7,234.63v113.2h85.93V325.92H406.4v-24h53.16V279.81H406.37V256.6h60.44v-22Z"/><path class="cls-2" d="M679.08,247.38c-4.87-2.81-9-5.77-13.51-7.69-17.23-7.31-34.79-9.57-52-.2C601.39,246.17,597,257.39,597.8,271c.71,12.44,7.32,20.43,18.4,24.94,6,2.43,12.32,4,18.45,6.06s12.12,3.69,17.79,6.36c5.3,2.5,7.31,8.47,4,12.48-2.39,2.9-6.67,5.77-10.19,5.89a63.17,63.17,0,0,1-21-2.61c-6.32-2-11.93-6.29-18.14-9.73l-14.62,17.69c7.19,4.1,13.48,8.61,20.45,11.47,16.55,6.8,33.64,8.49,50.46,1,12.67-5.63,18.42-16.08,18.68-29.9.25-13.37-5.72-22.69-17.75-28-6.06-2.66-12.49-4.47-18.78-6.61-6-2-12-3.77-17.91-6-3.95-1.52-5.88-4.94-5.57-9.16a8.77,8.77,0,0,1,6.91-8.26c3.64-.9,7.82-1.88,11.23-.93,8.84,2.44,17.39,5.92,26.73,9.23Z"/><path class="cls-2" d="M89.05,314.57c-21.19,15.91-39.52,16.87-53,2.46-12.25-13.13-12.9-35.87-1.43-49.65,5.1-6.13,11.5-10.16,19.39-11.35,13.54-2,24.71,3.19,34.62,12.39l15.77-18.19c-23.3-24.07-66.36-23.5-88.61.7C-7,275.76-4.25,316.58,21.68,337.51c24.47,19.76,66.5,15.88,83.15-7.66Z"/><path class="cls-2" d="M432,211.61V120.77h34.36V98.39h-94v22.77H407.2v90.45Z"/><path class="cls-1" d="M50.57,23.75c.78,1.46,1.27,2.27,1.66,3.12C59.5,42.92,66.72,59,74.09,75c.67,1.44,2.21,3.45,3.42,3.51,7.41.32,14.84.16,23.09.16L94.94,66.85c-10.08-21-20.11-42-30.31-62.89C63.84,2.34,61.84.32,60.31.23,53-.16,45.67.06,38.22.06,25.66,26.19,13.17,52.17.44,78.67c5.8,0,10.71-.6,15.42.13,7.79,1.22,11.29-2,14.14-9.09C36.21,54.37,43.46,39.47,50.57,23.75Z"/><path class="cls-1" d="M75.93,167.78V98.46h24.44V211.81c-6.64,0-13.25.17-19.84-.14-1.22-.06-2.55-1.86-3.51-3.11Q52.14,176,27.32,143.42c-.77-1-1.62-2-3.2-3.91v72H0V98.14c7.12,0,14.24-.14,21.33.14,1.24,0,2.62,1.76,3.56,3Q49.16,133,73.35,164.83C73.85,165.49,74.44,166.08,75.93,167.78Z"/><path class="cls-2" d="M556,142.74V98.31h24.47v113.3H556.2V166.4H509.94v45.17H485.17V98.3h24.39v44.44Z"/><path class="cls-2" d="M381.7,234.63h85.11v22H406.37v23.21h53.19v22.08H406.4v24h61.23v21.91H381.7Z"/><path class="cls-2" d="M679.08,247.38,667,265c-9.34-3.31-17.89-6.79-26.73-9.23-3.41-.95-7.59,0-11.23.93a8.77,8.77,0,0,0-6.91,8.26c-.31,4.22,1.62,7.64,5.57,9.16,5.87,2.27,12,4,17.91,6,6.29,2.14,12.72,3.95,18.78,6.61,12,5.29,18,14.61,17.75,28-.26,13.82-6,24.27-18.68,29.9-16.82,7.47-33.91,5.78-50.46-1-7-2.86-13.26-7.37-20.45-11.47l14.62-17.69c6.21,3.44,11.82,7.72,18.14,9.73a63.17,63.17,0,0,0,21,2.61c3.52-.12,7.8-3,10.19-5.89,3.3-4,1.29-10-4-12.48-5.67-2.67-11.81-4.35-17.79-6.36s-12.46-3.63-18.45-6.06c-11.08-4.51-17.69-12.5-18.4-24.94-.79-13.65,3.59-24.87,15.82-31.55,17.16-9.37,34.72-7.11,52,.2C670.11,241.61,674.21,244.57,679.08,247.38Z"/><path class="cls-2" d="M89.05,314.57l15.78,15.28c-16.65,23.54-58.68,27.42-83.15,7.66C-4.25,316.58-7,275.76,15.82,250.93c22.25-24.2,65.31-24.77,88.61-.7L88.66,268.42C78.75,259.22,67.58,254,54,256c-7.89,1.19-14.29,5.22-19.39,11.35C23.18,281.16,23.83,303.9,36.08,317,49.53,331.44,67.86,330.48,89.05,314.57Z"/><path class="cls-2" d="M432,211.61H407.2V121.16H372.42V98.39h94v22.38H432Z"/><path class="cls-1" d="M50.57,23.75C43.46,39.47,36.21,54.37,30,69.71,27.15,76.76,23.65,80,15.86,78.8c-4.71-.73-9.62-.13-15.42-.13C13.17,52.17,25.66,26.19,38.22.06,45.67.06,53-.16,60.31.23,61.84.32,63.84,2.34,64.63,4c10.2,20.91,20.23,41.91,30.31,62.89l5.66,11.81c-8.25,0-15.68.16-23.09-.16-1.21-.06-2.75-2.07-3.42-3.51C66.72,59,59.5,42.92,52.23,26.87,51.84,26,51.35,25.21,50.57,23.75Z"/><path class="cls-2" d="M180.41,96.08c-34.33,0-60.51,25.5-60.54,59s25.79,58.66,60.06,58.82,60.9-25.71,60.85-59.29C240.72,121.28,214.7,96.07,180.41,96.08Zm.13,94.82c-19.42,0-34.74-16-34.7-36.22s15-35.78,34.46-35.69c19.24.09,34.4,15.87,34.51,35.92S199.87,190.86,180.54,190.9Z"/><path class="cls-2" d="M317.72,236.39c-19-2.58-38.49-1.33-57.76-1.76-.25,0-.51.38-.8.61V348.17c6.47,0,12.45.11,18.43,0,13-.29,26.09.48,38.85-1.33,27.85-3.95,47.1-26.87,47.36-54.55C364.08,263.76,345.93,240.23,317.72,236.39Zm19.1,64.15c-3.14,14.55-15.16,24.4-31.34,25.24-7,.36-13.93.06-21.43.06V257.1c12.21.25,24.56-2.16,36.12,3.74C334,267.9,340.49,283.53,336.82,300.54Z"/><path class="cls-2" d="M555.73,307.7a12.5,12.5,0,0,1,1.21-.73c17-7.92,25.1-22.21,22.5-39.76-2.71-18.26-13.53-29.74-32.87-31-19.87-1.34-39.89-.29-60.43-.29V347.56h24.49V311.64c5.69,0,10.84-.28,15.92.15a8.29,8.29,0,0,1,5.46,3.06c6.87,9.81,13.39,19.87,20.16,29.75.92,1.34,2.58,3,3.94,3.08,8.73.28,17.46.14,27,.14ZM541.68,289c-10,.89-20.21.21-30.73.21V257.93c10.35,0,20.35-.56,30.24.18,8.43.62,13.42,7,13.58,15.23C554.93,281.39,550,288.23,541.68,289Z"/><path class="cls-2" d="M180.42,232.7C146.2,232.63,120,257.83,119.87,291c-.16,33.86,25.4,59,60,59.12s60.79-25.25,60.85-59.08C240.83,257.76,215,232.77,180.42,232.7Zm-.31,94.5c-19.5-.13-34.52-16.11-34.27-36.46s15.07-35.29,34.89-35.07c19.29.22,34.29,16.14,34.08,36.16C214.6,312.17,199.73,327.33,180.11,327.2Z"/><path class="cls-2" d="M330.63,171.37c1.87-.93,3.35-1.64,4.82-2.39,13.84-7,20.79-20.21,19.26-37.45-1.36-15.27-9.24-25.91-24-30.49a66.88,66.88,0,0,0-18.11-2.86c-16.32-.39-32.65-.14-49-.13-1.11,0-2.22.17-3.42.26V211.54h24.74V175.28c5.15,0,9.94.21,14.71-.07,3.56-.22,5.74.93,7.71,4,6.36,10,13,19.7,19.67,29.49.8,1.17,2,2.94,3,3,9.19.24,18.38.14,28.24.14C348.72,197.86,339.75,184.71,330.63,171.37Zm-15.81-18.46c-9.76.56-19.58.13-29.67.13v-32c10.49,0,20.8-.58,31,.18,8.43.62,13.65,7.55,13.56,15.83C329.64,145.57,323.72,152.41,314.82,152.91Z"/></g></g></svg>